<svg xmlns="http://www.w3.org/2000/svg" viewBox="0 0 1440 320"><path fill="#ff0062" fill-opacity="1" d="M0,128L26.7,144C53.3,160,107,192,160,202.7C213.3,213,267,203,320,186.7C373.3,171,427,149,480,149.3C533.3,149,587,171,640,154.7C693.3,139,747,85,800,90.7C853.3,96,907,160,960,186.7C1013.3,213,1067,203,1120,218.7C1173.3,235,1227,277,1280,261.3C1333.3,245,1387,171,1413,133.3L1440,96L1440,320L1413.3,320C1386.7,320,1333,320,1280,320C1226.7,320,1173,320,1120,320C1066.7,320,1013,320,960,320C906.7,320,853,320,800,320C746.7,320,693,320,640,320C586.7,320,533,320,480,320C426.7,320,373,320,320,320C266.7,320,213,320,160,320C106.7,320,53,320,27,320L0,320Z"></path></svg>