<svg xmlns="http://www.w3.org/2000/svg" viewBox="0 0 1440 320"><path fill="#0099ff" fill-opacity="0.5" d="M0,256L26.7,234.7C53.3,213,107,171,160,165.3C213.3,160,267,192,320,202.7C373.3,213,427,203,480,176C533.3,149,587,107,640,122.7C693.3,139,747,213,800,229.3C853.3,245,907,203,960,170.7C1013.3,139,1067,117,1120,117.3C1173.3,117,1227,139,1280,128C1333.3,117,1387,75,1413,53.3L1440,32L1440,320L1413.3,320C1386.7,320,1333,320,1280,320C1226.7,320,1173,320,1120,320C1066.7,320,1013,320,960,320C906.7,320,853,320,800,320C746.7,320,693,320,640,320C586.7,320,533,320,480,320C426.7,320,373,320,320,320C266.7,320,213,320,160,320C106.7,320,53,320,27,320L0,320Z"></path></svg>